<?xml version="1.0" standalone="no"?>
<!DOCTYPE svg PUBLIC "-//W3C//DTD SVG 20010904//EN"
 "http://www.w3.org/TR/2001/REC-SVG-20010904/DTD/svg10.dtd">
<svg version="1.0" xmlns="http://www.w3.org/2000/svg"
 width="16.000000pt" height="16.000000pt" viewBox="0 0 16.000000 16.000000"
 preserveAspectRatio="xMidYMid meet">
<metadata>
Created by potrace 1.11, written by Peter Selinger 2001-2013
</metadata>
<g transform="translate(0.000000,16.000000) scale(0.004000,-0.004000)"
fill="#000000" stroke="none">
<path d="M145 2623 l0 -198 70 -1 c39 0 80 -1 93 -2 l22 -2 0 -505 0 -505 -90
0 c-65 0 -90 -4 -91 -12 -1 -7 -2 -97 -3 -200 l-1 -188 748 0 747 0 0 365 0
365 95 0 95 0 0 199 0 199 -82 -2 c-132 -4 -118 -45 -118 345 l0 339 -743 0
-742 0 0 -197z m1085 -343 l0 -140 -250 0 -250 0 0 140 0 140 250 0 250 0 0
-140z m10 -700 c0 -159 0 -160 -22 -160 -34 -1 -259 -1 -380 -1 l-108 1 0 160
0 160 255 0 255 0 0 -160z"/>
<path d="M2010 1905 l0 -895 206 0 206 0 256 254 257 255 105 -104 c58 -56
177 -173 265 -259 l160 -156 188 0 187 0 0 900 0 900 -200 0 -200 0 0 -612 0
-613 -150 150 -150 150 0 462 0 463 -200 0 -200 0 0 -453 0 -453 -162 -165
-163 -164 -3 618 -2 617 -200 0 -200 0 0 -895z"/>
</g>
</svg>
